<svg xmlns="http://www.w3.org/2000/svg" id="export" class="canvas" preserveAspectRatio="xMidYMid meet" style="" width="841" height="63"><rect id="background" fill="#fff" pointer-events="all" width="841" height="63"/><g id="origin" transform="translate(2.85, 2.85) scale(1)"><g id="clusters" class="clusters"/><g id="edge-paths" class="edge-paths"><defs><marker id="arrowhead" viewBox="0 0 10 10" refX="9" refY="5" markerUnits="strokeWidth" markerWidth="8" markerHeight="6" orient="auto" style="fill: rgb(0, 0, 0);"><path d="M 0 0 L 10 5 L 0 10 L 4 5 z" style="stroke-width: 1;"/></marker><marker id="arrowhead-select" viewBox="0 0 10 10" refX="9" refY="5" markerUnits="strokeWidth" markerWidth="8" markerHeight="6" orient="auto" style="fill: rgb(238, 0, 0);"><path d="M 0 0 L 10 5 L 0 10 L 4 5 z" style="stroke-width: 1;"/></marker><marker id="arrowhead-hover" viewBox="0 0 10 10" refX="9" refY="5" markerUnits="strokeWidth" markerWidth="8" markerHeight="6" orient="auto"><path d="M 0 0 L 10 5 L 0 10 L 4 5 z" style="stroke-width: 1;"/></marker></defs><path id="edge-1" class="edge-path" d="M21,28.5L22.666666666666668,28.5C24.333333333333332,28.5,27.666666666666668,28.5,31,28.5C34.333333333333336,28.5,37.666666666666664,28.5,41,28.5C44.333333333333336,28.5,47.666666666666664,28.5,51,28.5C54.333333333333336,28.5,57.666666666666664,28.5,59.333333333333336,28.5L61,28.5" style="stroke: rgb(0, 0, 0); stroke-width: 1px; fill: none; marker-end: url(&quot;#arrowhead&quot;);"/><path class="edge-path-hit-test" d="M21,28.5L22.666666666666668,28.5C24.333333333333332,28.5,27.666666666666668,28.5,31,28.5C34.333333333333336,28.5,37.666666666666664,28.5,41,28.5C44.333333333333336,28.5,47.666666666666664,28.5,51,28.5C54.333333333333336,28.5,57.666666666666664,28.5,59.333333333333336,28.5L61,28.5" style="pointer-events: stroke; stroke-width: 0.5em; fill: none; stroke: rgb(0, 0, 0); stroke-opacity: 0.001;"/><path id="edge-4" class="edge-path" d="M156.34375,28.5L158.01041666666666,28.5C159.67708333333334,28.5,163.01041666666666,28.5,166.34375,28.5C169.67708333333334,28.5,173.01041666666666,28.5,174.67708333333334,28.5L176.34375,28.5" style="stroke: rgb(0, 0, 0); stroke-width: 1px; fill: none; marker-end: url(&quot;#arrowhead&quot;);"/><path class="edge-path-hit-test" d="M156.34375,28.5L158.01041666666666,28.5C159.67708333333334,28.5,163.01041666666666,28.5,166.34375,28.5C169.67708333333334,28.5,173.01041666666666,28.5,174.67708333333334,28.5L176.34375,28.5" style="pointer-events: stroke; stroke-width: 0.5em; fill: none; stroke: rgb(0, 0, 0); stroke-opacity: 0.001;"/><path id="edge-5" class="edge-path" d="M208.8125,28.5L210.47916666666666,28.5C212.14583333333334,28.5,215.47916666666666,28.5,218.8125,28.5C222.14583333333334,28.5,225.47916666666666,28.5,227.14583333333334,28.5L228.8125,28.5" style="stroke: rgb(0, 0, 0); stroke-width: 1px; fill: none; marker-end: url(&quot;#arrowhead&quot;);"/><path class="edge-path-hit-test" d="M208.8125,28.5L210.47916666666666,28.5C212.14583333333334,28.5,215.47916666666666,28.5,218.8125,28.5C222.14583333333334,28.5,225.47916666666666,28.5,227.14583333333334,28.5L228.8125,28.5" style="pointer-events: stroke; stroke-width: 0.5em; fill: none; stroke: rgb(0, 0, 0); stroke-opacity: 0.001;"/><path id="edge-8" class="edge-path" d="M324.15625,28.5L325.8229166666667,28.5C327.4895833333333,28.5,330.8229166666667,28.5,334.15625,28.5C337.4895833333333,28.5,340.8229166666667,28.5,342.4895833333333,28.5L344.15625,28.5" style="stroke: rgb(0, 0, 0); stroke-width: 1px; fill: none; marker-end: url(&quot;#arrowhead&quot;);"/><path class="edge-path-hit-test" d="M324.15625,28.5L325.8229166666667,28.5C327.4895833333333,28.5,330.8229166666667,28.5,334.15625,28.5C337.4895833333333,28.5,340.8229166666667,28.5,342.4895833333333,28.5L344.15625,28.5" style="pointer-events: stroke; stroke-width: 0.5em; fill: none; stroke: rgb(0, 0, 0); stroke-opacity: 0.001;"/><path id="edge-9" class="edge-path" d="M376.625,28.5L378.2916666666667,28.5C379.9583333333333,28.5,383.2916666666667,28.5,386.625,28.5C389.9583333333333,28.5,393.2916666666667,28.5,394.9583333333333,28.5L396.625,28.5" style="stroke: rgb(0, 0, 0); stroke-width: 1px; fill: none; marker-end: url(&quot;#arrowhead&quot;);"/><path class="edge-path-hit-test" d="M376.625,28.5L378.2916666666667,28.5C379.9583333333333,28.5,383.2916666666667,28.5,386.625,28.5C389.9583333333333,28.5,393.2916666666667,28.5,394.9583333333333,28.5L396.625,28.5" style="pointer-events: stroke; stroke-width: 0.5em; fill: none; stroke: rgb(0, 0, 0); stroke-opacity: 0.001;"/><path id="edge-12" class="edge-path" d="M496.8125,28.5L498.4791666666667,28.5C500.1458333333333,28.5,503.4791666666667,28.5,506.8125,28.5C510.1458333333333,28.5,513.4791666666666,28.5,515.1458333333334,28.5L516.8125,28.5" style="stroke: rgb(0, 0, 0); stroke-width: 1px; fill: none; marker-end: url(&quot;#arrowhead&quot;);"/><path class="edge-path-hit-test" d="M496.8125,28.5L498.4791666666667,28.5C500.1458333333333,28.5,503.4791666666667,28.5,506.8125,28.5C510.1458333333333,28.5,513.4791666666666,28.5,515.1458333333334,28.5L516.8125,28.5" style="pointer-events: stroke; stroke-width: 0.5em; fill: none; stroke: rgb(0, 0, 0); stroke-opacity: 0.001;"/><path id="edge-13" class="edge-path" d="M549.28125,28.5L550.9479166666666,28.5C552.6145833333334,28.5,555.9479166666666,28.5,559.28125,28.5C562.6145833333334,28.5,565.9479166666666,28.5,567.6145833333334,28.5L569.28125,28.5" style="stroke: rgb(0, 0, 0); stroke-width: 1px; fill: none; marker-end: url(&quot;#arrowhead&quot;);"/><path class="edge-path-hit-test" d="M549.28125,28.5L550.9479166666666,28.5C552.6145833333334,28.5,555.9479166666666,28.5,559.28125,28.5C562.6145833333334,28.5,565.9479166666666,28.5,567.6145833333334,28.5L569.28125,28.5" style="pointer-events: stroke; stroke-width: 0.5em; fill: none; stroke: rgb(0, 0, 0); stroke-opacity: 0.001;"/><path id="edge-16" class="edge-path" d="M674.328125,28.5L675.9947916666666,28.5C677.6614583333334,28.5,680.9947916666666,28.5,684.328125,28.5C687.6614583333334,28.5,690.9947916666666,28.5,692.6614583333334,28.5L694.328125,28.5" style="stroke: rgb(0, 0, 0); stroke-width: 1px; fill: none; marker-end: url(&quot;#arrowhead&quot;);"/><path class="edge-path-hit-test" d="M674.328125,28.5L675.9947916666666,28.5C677.6614583333334,28.5,680.9947916666666,28.5,684.328125,28.5C687.6614583333334,28.5,690.9947916666666,28.5,692.6614583333334,28.5L694.328125,28.5" style="pointer-events: stroke; stroke-width: 0.5em; fill: none; stroke: rgb(0, 0, 0); stroke-opacity: 0.001;"/><path id="edge-17" class="edge-path" d="M731.109375,28.5L732.7760416666666,28.5C734.4427083333334,28.5,737.7760416666666,28.5,741.109375,28.5C744.4427083333334,28.5,747.7760416666666,28.5,749.4427083333334,28.5L751.109375,28.5" style="stroke: rgb(0, 0, 0); stroke-width: 1px; fill: none; marker-end: url(&quot;#arrowhead&quot;);"/><path class="edge-path-hit-test" d="M731.109375,28.5L732.7760416666666,28.5C734.4427083333334,28.5,737.7760416666666,28.5,741.109375,28.5C744.4427083333334,28.5,747.7760416666666,28.5,749.4427083333334,28.5L751.109375,28.5" style="pointer-events: stroke; stroke-width: 0.5em; fill: none; stroke: rgb(0, 0, 0); stroke-opacity: 0.001;"/><path id="edge-19" class="edge-path" d="M788.794921875,28.5L790.4615885416666,28.5C792.1282552083334,28.5,795.4615885416666,28.5,798.794921875,28.5C802.1282552083334,28.5,805.4615885416666,28.5,807.1282552083334,28.5L808.794921875,28.5" style="stroke: rgb(0, 0, 0); stroke-width: 1px; fill: none; marker-end: url(&quot;#arrowhead&quot;);"/><path class="edge-path-hit-test" d="M788.794921875,28.5L790.4615885416666,28.5C792.1282552083334,28.5,795.4615885416666,28.5,798.794921875,28.5C802.1282552083334,28.5,805.4615885416666,28.5,807.1282552083334,28.5L808.794921875,28.5" style="pointer-events: stroke; stroke-width: 0.5em; fill: none; stroke: rgb(0, 0, 0); stroke-opacity: 0.001;"/></g><g id="edge-labels" class="edge-labels"/><g id="nodes" class="nodes"><g id="input-name-x" class="node graph-input" transform="translate(0,17)" style=""><g class="node-item graph-item-input" transform="translate(0,0)"><path d="M5,0h11a5,5 0 0 1 5,5v13a5,5 0 0 1 -5,5h-11a5,5 0 0 1 -5,-5v-13a5,5 0 0 1 5,-5z" style="stroke: rgb(0, 0, 0); fill: rgb(238, 238, 238); stroke-width: 0;"/><text x="6" y="16" style="font-family: -apple-system, BlinkMacSystemFont, &quot;Segoe WPC&quot;, &quot;Segoe UI&quot;, Ubuntu, &quot;Droid Sans&quot;, sans-serif, &quot;PingFang SC&quot;; font-size: 11px; text-rendering: geometricprecision; user-select: none;">x</text></g><path class="node node-border" d="M5,0h11a5,5 0 0 1 5,5v13a5,5 0 0 1 -5,5h-11a5,5 0 0 1 -5,-5v-13a5,5 0 0 1 5,-5z" style="stroke: rgb(51, 51, 51); fill: none; stroke-width: 1px;"/></g><g id="node-name-model.0" class="node graph-node" transform="translate(61,0)" style=""><g class="node-item node-item-type node-item-type-layer" transform="translate(0,0)"><path d="M5,0h85.34375a5,5 0 0 1 5,5v18a0,0 0 0 1 0,0h-95.34375a0,0 0 0 1 0,0v-18a5,5 0 0 1 5,-5z" style="stroke: rgb(0, 0, 0); fill: rgb(51, 85, 136); stroke-width: 0;"/><text x="6" y="16" style="font-family: -apple-system, BlinkMacSystemFont, &quot;Segoe WPC&quot;, &quot;Segoe UI&quot;, Ubuntu, &quot;Droid Sans&quot;, sans-serif, &quot;PingFang SC&quot;; font-size: 11px; text-rendering: geometricprecision; user-select: none; fill: rgb(255, 255, 255);">linear</text><title>model.0</title></g><g class="node-attribute-list" transform="translate(0,23)"><path d="M0,0h95.34375a0,0 0 0 1 0,0v29a5,5 0 0 1 -5,5h-85.34375a5,5 0 0 1 -5,-5v-29a0,0 0 0 1 0,0z" style="stroke: rgb(0, 0, 0); fill: rgb(255, 255, 255); stroke-width: 0;"/><g class="node-attribute"><text xml:space="preserve" x="6" y="14" style="font-family: -apple-system, BlinkMacSystemFont, &quot;Segoe WPC&quot;, &quot;Segoe UI&quot;, Ubuntu, &quot;Droid Sans&quot;, sans-serif, &quot;PingFang SC&quot;; font-size: 9px; font-weight: normal; text-rendering: geometricprecision; user-select: none;"><title>float32[256,100]</title><tspan style="font-weight: bold;">weight</tspan><tspan>〈256×100〉</tspan></text></g><g class="node-attribute"><text xml:space="preserve" x="6" y="28" style="font-family: -apple-system, BlinkMacSystemFont, &quot;Segoe WPC&quot;, &quot;Segoe UI&quot;, Ubuntu, &quot;Droid Sans&quot;, sans-serif, &quot;PingFang SC&quot;; font-size: 9px; font-weight: normal; text-rendering: geometricprecision; user-select: none;"><title>float32[256]</title><tspan style="font-weight: bold;">bias</tspan><tspan>〈256〉</tspan></text></g><line class="node" x1="0" x2="95.34375" y1="0" y2="0" style="stroke: rgb(51, 51, 51); fill: none; stroke-width: 1px;"/></g><path class="node node-border" d="M5,0h85.34375a5,5 0 0 1 5,5v47a5,5 0 0 1 -5,5h-85.34375a5,5 0 0 1 -5,-5v-47a5,5 0 0 1 5,-5z" style="stroke: rgb(51, 51, 51); fill: none; stroke-width: 1px;"/></g><g id="node-id-5" class="node graph-node" transform="translate(176.34375,17)" style=""><g class="node-item node-item-type node-item-type-activation" transform="translate(0,0)"><path d="M5,0h22.46875a5,5 0 0 1 5,5v13a5,5 0 0 1 -5,5h-22.46875a5,5 0 0 1 -5,-5v-13a5,5 0 0 1 5,-5z" style="stroke: rgb(0, 0, 0); fill: rgb(112, 41, 33); stroke-width: 0;"/><text x="6" y="16" style="font-family: -apple-system, BlinkMacSystemFont, &quot;Segoe WPC&quot;, &quot;Segoe UI&quot;, Ubuntu, &quot;Droid Sans&quot;, sans-serif, &quot;PingFang SC&quot;; font-size: 11px; text-rendering: geometricprecision; user-select: none; fill: rgb(255, 255, 255);">relu</text></g><path class="node node-border" d="M5,0h22.46875a5,5 0 0 1 5,5v13a5,5 0 0 1 -5,5h-22.46875a5,5 0 0 1 -5,-5v-13a5,5 0 0 1 5,-5z" style="stroke: rgb(51, 51, 51); fill: none; stroke-width: 1px;"/></g><g id="node-name-model.2" class="node graph-node" transform="translate(228.8125,0)" style=""><g class="node-item node-item-type node-item-type-layer" transform="translate(0,0)"><path d="M5,0h85.34375a5,5 0 0 1 5,5v18a0,0 0 0 1 0,0h-95.34375a0,0 0 0 1 0,0v-18a5,5 0 0 1 5,-5z" style="stroke: rgb(0, 0, 0); fill: rgb(51, 85, 136); stroke-width: 0;"/><text x="6" y="16" style="font-family: -apple-system, BlinkMacSystemFont, &quot;Segoe WPC&quot;, &quot;Segoe UI&quot;, Ubuntu, &quot;Droid Sans&quot;, sans-serif, &quot;PingFang SC&quot;; font-size: 11px; text-rendering: geometricprecision; user-select: none; fill: rgb(255, 255, 255);">linear</text><title>model.2</title></g><g class="node-attribute-list" transform="translate(0,23)"><path d="M0,0h95.34375a0,0 0 0 1 0,0v29a5,5 0 0 1 -5,5h-85.34375a5,5 0 0 1 -5,-5v-29a0,0 0 0 1 0,0z" style="stroke: rgb(0, 0, 0); fill: rgb(255, 255, 255); stroke-width: 0;"/><g class="node-attribute"><text xml:space="preserve" x="6" y="14" style="font-family: -apple-system, BlinkMacSystemFont, &quot;Segoe WPC&quot;, &quot;Segoe UI&quot;, Ubuntu, &quot;Droid Sans&quot;, sans-serif, &quot;PingFang SC&quot;; font-size: 9px; font-weight: normal; text-rendering: geometricprecision; user-select: none;"><title>float32[512,256]</title><tspan style="font-weight: bold;">weight</tspan><tspan>〈512×256〉</tspan></text></g><g class="node-attribute"><text xml:space="preserve" x="6" y="28" style="font-family: -apple-system, BlinkMacSystemFont, &quot;Segoe WPC&quot;, &quot;Segoe UI&quot;, Ubuntu, &quot;Droid Sans&quot;, sans-serif, &quot;PingFang SC&quot;; font-size: 9px; font-weight: normal; text-rendering: geometricprecision; user-select: none;"><title>float32[512]</title><tspan style="font-weight: bold;">bias</tspan><tspan>〈512〉</tspan></text></g><line class="node" x1="0" x2="95.34375" y1="0" y2="0" style="stroke: rgb(51, 51, 51); fill: none; stroke-width: 1px;"/></g><path class="node node-border" d="M5,0h85.34375a5,5 0 0 1 5,5v47a5,5 0 0 1 -5,5h-85.34375a5,5 0 0 1 -5,-5v-47a5,5 0 0 1 5,-5z" style="stroke: rgb(51, 51, 51); fill: none; stroke-width: 1px;"/></g><g id="node-id-6" class="node graph-node" transform="translate(344.15625,17)" style=""><g class="node-item node-item-type node-item-type-activation" transform="translate(0,0)"><path d="M5,0h22.46875a5,5 0 0 1 5,5v13a5,5 0 0 1 -5,5h-22.46875a5,5 0 0 1 -5,-5v-13a5,5 0 0 1 5,-5z" style="stroke: rgb(0, 0, 0); fill: rgb(112, 41, 33); stroke-width: 0;"/><text x="6" y="16" style="font-family: -apple-system, BlinkMacSystemFont, &quot;Segoe WPC&quot;, &quot;Segoe UI&quot;, Ubuntu, &quot;Droid Sans&quot;, sans-serif, &quot;PingFang SC&quot;; font-size: 11px; text-rendering: geometricprecision; user-select: none; fill: rgb(255, 255, 255);">relu</text></g><path class="node node-border" d="M5,0h22.46875a5,5 0 0 1 5,5v13a5,5 0 0 1 -5,5h-22.46875a5,5 0 0 1 -5,-5v-13a5,5 0 0 1 5,-5z" style="stroke: rgb(51, 51, 51); fill: none; stroke-width: 1px;"/></g><g id="node-name-model.4" class="node graph-node" transform="translate(396.625,0)" style=""><g class="node-item node-item-type node-item-type-layer" transform="translate(0,0)"><path d="M5,0h90.1875a5,5 0 0 1 5,5v18a0,0 0 0 1 0,0h-100.1875a0,0 0 0 1 0,0v-18a5,5 0 0 1 5,-5z" style="stroke: rgb(0, 0, 0); fill: rgb(51, 85, 136); stroke-width: 0;"/><text x="6" y="16" style="font-family: -apple-system, BlinkMacSystemFont, &quot;Segoe WPC&quot;, &quot;Segoe UI&quot;, Ubuntu, &quot;Droid Sans&quot;, sans-serif, &quot;PingFang SC&quot;; font-size: 11px; text-rendering: geometricprecision; user-select: none; fill: rgb(255, 255, 255);">linear</text><title>model.4</title></g><g class="node-attribute-list" transform="translate(0,23)"><path d="M0,0h100.1875a0,0 0 0 1 0,0v29a5,5 0 0 1 -5,5h-90.1875a5,5 0 0 1 -5,-5v-29a0,0 0 0 1 0,0z" style="stroke: rgb(0, 0, 0); fill: rgb(255, 255, 255); stroke-width: 0;"/><g class="node-attribute"><text xml:space="preserve" x="6" y="14" style="font-family: -apple-system, BlinkMacSystemFont, &quot;Segoe WPC&quot;, &quot;Segoe UI&quot;, Ubuntu, &quot;Droid Sans&quot;, sans-serif, &quot;PingFang SC&quot;; font-size: 9px; font-weight: normal; text-rendering: geometricprecision; user-select: none;"><title>float32[1024,512]</title><tspan style="font-weight: bold;">weight</tspan><tspan>〈1024×512〉</tspan></text></g><g class="node-attribute"><text xml:space="preserve" x="6" y="28" style="font-family: -apple-system, BlinkMacSystemFont, &quot;Segoe WPC&quot;, &quot;Segoe UI&quot;, Ubuntu, &quot;Droid Sans&quot;, sans-serif, &quot;PingFang SC&quot;; font-size: 9px; font-weight: normal; text-rendering: geometricprecision; user-select: none;"><title>float32[1024]</title><tspan style="font-weight: bold;">bias</tspan><tspan>〈1024〉</tspan></text></g><line class="node" x1="0" x2="100.1875" y1="0" y2="0" style="stroke: rgb(51, 51, 51); fill: none; stroke-width: 1px;"/></g><path class="node node-border" d="M5,0h90.1875a5,5 0 0 1 5,5v47a5,5 0 0 1 -5,5h-90.1875a5,5 0 0 1 -5,-5v-47a5,5 0 0 1 5,-5z" style="stroke: rgb(51, 51, 51); fill: none; stroke-width: 1px;"/></g><g id="node-id-7" class="node graph-node" transform="translate(516.8125,17)" style=""><g class="node-item node-item-type node-item-type-activation" transform="translate(0,0)"><path d="M5,0h22.46875a5,5 0 0 1 5,5v13a5,5 0 0 1 -5,5h-22.46875a5,5 0 0 1 -5,-5v-13a5,5 0 0 1 5,-5z" style="stroke: rgb(0, 0, 0); fill: rgb(112, 41, 33); stroke-width: 0;"/><text x="6" y="16" style="font-family: -apple-system, BlinkMacSystemFont, &quot;Segoe WPC&quot;, &quot;Segoe UI&quot;, Ubuntu, &quot;Droid Sans&quot;, sans-serif, &quot;PingFang SC&quot;; font-size: 11px; text-rendering: geometricprecision; user-select: none; fill: rgb(255, 255, 255);">relu</text></g><path class="node node-border" d="M5,0h22.46875a5,5 0 0 1 5,5v13a5,5 0 0 1 -5,5h-22.46875a5,5 0 0 1 -5,-5v-13a5,5 0 0 1 5,-5z" style="stroke: rgb(51, 51, 51); fill: none; stroke-width: 1px;"/></g><g id="node-name-model.6" class="node graph-node" transform="translate(569.28125,0)" style=""><g class="node-item node-item-type node-item-type-layer" transform="translate(0,0)"><path d="M5,0h95.046875a5,5 0 0 1 5,5v18a0,0 0 0 1 0,0h-105.046875a0,0 0 0 1 0,0v-18a5,5 0 0 1 5,-5z" style="stroke: rgb(0, 0, 0); fill: rgb(51, 85, 136); stroke-width: 0;"/><text x="6" y="16" style="font-family: -apple-system, BlinkMacSystemFont, &quot;Segoe WPC&quot;, &quot;Segoe UI&quot;, Ubuntu, &quot;Droid Sans&quot;, sans-serif, &quot;PingFang SC&quot;; font-size: 11px; text-rendering: geometricprecision; user-select: none; fill: rgb(255, 255, 255);">linear</text><title>model.6</title></g><g class="node-attribute-list" transform="translate(0,23)"><path d="M0,0h105.046875a0,0 0 0 1 0,0v29a5,5 0 0 1 -5,5h-95.046875a5,5 0 0 1 -5,-5v-29a0,0 0 0 1 0,0z" style="stroke: rgb(0, 0, 0); fill: rgb(255, 255, 255); stroke-width: 0;"/><g class="node-attribute"><text xml:space="preserve" x="6" y="14" style="font-family: -apple-system, BlinkMacSystemFont, &quot;Segoe WPC&quot;, &quot;Segoe UI&quot;, Ubuntu, &quot;Droid Sans&quot;, sans-serif, &quot;PingFang SC&quot;; font-size: 9px; font-weight: normal; text-rendering: geometricprecision; user-select: none;"><title>float32[1998,1024]</title><tspan style="font-weight: bold;">weight</tspan><tspan>〈1998×1024〉</tspan></text></g><g class="node-attribute"><text xml:space="preserve" x="6" y="28" style="font-family: -apple-system, BlinkMacSystemFont, &quot;Segoe WPC&quot;, &quot;Segoe UI&quot;, Ubuntu, &quot;Droid Sans&quot;, sans-serif, &quot;PingFang SC&quot;; font-size: 9px; font-weight: normal; text-rendering: geometricprecision; user-select: none;"><title>float32[1998]</title><tspan style="font-weight: bold;">bias</tspan><tspan>〈1998〉</tspan></text></g><line class="node" x1="0" x2="105.046875" y1="0" y2="0" style="stroke: rgb(51, 51, 51); fill: none; stroke-width: 1px;"/></g><path class="node node-border" d="M5,0h95.046875a5,5 0 0 1 5,5v47a5,5 0 0 1 -5,5h-95.046875a5,5 0 0 1 -5,-5v-47a5,5 0 0 1 5,-5z" style="stroke: rgb(51, 51, 51); fill: none; stroke-width: 1px;"/></g><g id="node-id-8" class="node graph-node" transform="translate(694.328125,17)" style=""><g class="node-item node-item-type" transform="translate(0,0)"><path d="M5,0h26.78125a5,5 0 0 1 5,5v13a5,5 0 0 1 -5,5h-26.78125a5,5 0 0 1 -5,-5v-13a5,5 0 0 1 5,-5z" style="stroke: rgb(0, 0, 0); fill: rgb(0, 0, 0); stroke-width: 0;"/><text x="6" y="16" style="font-family: -apple-system, BlinkMacSystemFont, &quot;Segoe WPC&quot;, &quot;Segoe UI&quot;, Ubuntu, &quot;Droid Sans&quot;, sans-serif, &quot;PingFang SC&quot;; font-size: 11px; text-rendering: geometricprecision; user-select: none; fill: rgb(255, 255, 255);">tanh</text></g><path class="node node-border" d="M5,0h26.78125a5,5 0 0 1 5,5v13a5,5 0 0 1 -5,5h-26.78125a5,5 0 0 1 -5,-5v-13a5,5 0 0 1 5,-5z" style="stroke: rgb(51, 51, 51); fill: none; stroke-width: 1px;"/></g><g id="node-id-9" class="node graph-node" transform="translate(751.109375,17)" style=""><g class="node-item node-item-type" transform="translate(0,0)"><path d="M5,0h27.685546875a5,5 0 0 1 5,5v13a5,5 0 0 1 -5,5h-27.685546875a5,5 0 0 1 -5,-5v-13a5,5 0 0 1 5,-5z" style="stroke: rgb(0, 0, 0); fill: rgb(0, 0, 0); stroke-width: 0;"/><text x="6" y="16" style="font-family: -apple-system, BlinkMacSystemFont, &quot;Segoe WPC&quot;, &quot;Segoe UI&quot;, Ubuntu, &quot;Droid Sans&quot;, sans-serif, &quot;PingFang SC&quot;; font-size: 11px; text-rendering: geometricprecision; user-select: none; fill: rgb(255, 255, 255);">view</text></g><path class="node node-border" d="M5,0h27.685546875a5,5 0 0 1 5,5v13a5,5 0 0 1 -5,5h-27.685546875a5,5 0 0 1 -5,-5v-13a5,5 0 0 1 5,-5z" style="stroke: rgb(51, 51, 51); fill: none; stroke-width: 1px;"/></g><g class="node" transform="translate(808.794921875,17)" style=""><g class="node-item graph-item-output" transform="translate(0,0)"><path d="M5,0h15.9296875a5,5 0 0 1 5,5v13a5,5 0 0 1 -5,5h-15.9296875a5,5 0 0 1 -5,-5v-13a5,5 0 0 1 5,-5z" style="stroke: rgb(0, 0, 0); fill: rgb(238, 238, 238); stroke-width: 0;"/><text x="6" y="16" style="font-family: -apple-system, BlinkMacSystemFont, &quot;Segoe WPC&quot;, &quot;Segoe UI&quot;, Ubuntu, &quot;Droid Sans&quot;, sans-serif, &quot;PingFang SC&quot;; font-size: 11px; text-rendering: geometricprecision; user-select: none;">19</text></g><path class="node node-border" d="M5,0h15.9296875a5,5 0 0 1 5,5v13a5,5 0 0 1 -5,5h-15.9296875a5,5 0 0 1 -5,-5v-13a5,5 0 0 1 5,-5z" style="stroke: rgb(51, 51, 51); fill: none; stroke-width: 1px;"/></g></g></g></svg>